<svg xmlns="http://www.w3.org/2000/svg" viewBox="0 0 640 400" width="640" height="400" role="img">
  <title>Close-up of the Hyosung Halo II interactive display</title>
  <defs>
    <linearGradient id="detail-bg" x1="0" y1="0" x2="1" y2="1">
      <stop offset="0%" stop-color="#171c23"/>
      <stop offset="100%" stop-color="#0b0d10"/>
    </linearGradient>
    <linearGradient id="detail-sheen" x1="0" y1="0" x2="1" y2="1">
      <stop offset="0%" stop-color="#ddc52b" stop-opacity="0.30"/>
      <stop offset="60%" stop-color="#ddc52b" stop-opacity="0"/>
    </linearGradient>
  </defs>
  <rect width="640" height="400" rx="20" fill="url(#detail-bg)"/>
  <rect width="640" height="400" rx="20" fill="url(#detail-sheen)"/>

  <rect x="48" y="48" width="330" height="304" rx="14" fill="#0b0d10" stroke="#ffffff" stroke-opacity="0.10"/>
  <rect x="64" y="64" width="298" height="272" rx="8" fill="#12161c"/>
  <rect x="88" y="92" width="118" height="12" rx="6" fill="#ddc52b"/>
  <rect x="88" y="118" width="200" height="8" rx="4" fill="#f2f4f6" opacity="0.45"/>
  <rect x="88" y="136" width="152" height="8" rx="4" fill="#f2f4f6" opacity="0.25"/>
  <rect x="88" y="176" width="128" height="42" rx="8" fill="#ddc52b"/>
  <rect x="232" y="176" width="106" height="42" rx="8" fill="#ffffff" opacity="0.10"/>
  <rect x="88" y="230" width="128" height="42" rx="8" fill="#ffffff" opacity="0.10"/>
  <rect x="232" y="230" width="106" height="42" rx="8" fill="#ffffff" opacity="0.10"/>
  <rect x="88" y="292" width="250" height="8" rx="4" fill="#f2f4f6" opacity="0.18"/>

  <g transform="translate(424 78)">
    <rect x="0" y="0" width="168" height="60" rx="12" fill="#ffffff" fill-opacity="0.06" stroke="#ffffff" stroke-opacity="0.10"/>
    <circle cx="30" cy="30" r="11" fill="#ddc52b"/>
    <rect x="52" y="20" width="86" height="7" rx="3.5" fill="#f2f4f6" opacity="0.55"/>
    <rect x="52" y="34" width="58" height="6" rx="3" fill="#f2f4f6" opacity="0.28"/>
  </g>
  <g transform="translate(424 158)">
    <rect x="0" y="0" width="168" height="60" rx="12" fill="#ffffff" fill-opacity="0.06" stroke="#ffffff" stroke-opacity="0.10"/>
    <circle cx="30" cy="30" r="11" fill="#ddc52b"/>
    <rect x="52" y="20" width="86" height="7" rx="3.5" fill="#f2f4f6" opacity="0.55"/>
    <rect x="52" y="34" width="70" height="6" rx="3" fill="#f2f4f6" opacity="0.28"/>
  </g>
  <g transform="translate(424 238)">
    <rect x="0" y="0" width="168" height="60" rx="12" fill="#ffffff" fill-opacity="0.06" stroke="#ffffff" stroke-opacity="0.10"/>
    <circle cx="30" cy="30" r="11" fill="#ddc52b"/>
    <rect x="52" y="20" width="86" height="7" rx="3.5" fill="#f2f4f6" opacity="0.55"/>
    <rect x="52" y="34" width="44" height="6" rx="3" fill="#f2f4f6" opacity="0.28"/>
  </g>
</svg>
